<?xml version="1.0" encoding="iso-8859-1"?>
<!-- Generator: Adobe Illustrator 19.0.0, SVG Export Plug-In . SVG Version: 6.00 Build 0)  -->
<svg version="1.1" id="Layer_1" xmlns="http://www.w3.org/2000/svg" xmlns:xlink="http://www.w3.org/1999/xlink" x="0px" y="0px"
	 viewBox="0 0 511.988 511.988" style="enable-background:new 0 0 511.988 511.988;" xml:space="preserve">
<path style="fill:#434A54;" d="M158.219,100.467c26.187-22.719,60.374-36.468,97.763-36.468c37.381,0,71.568,13.749,97.787,36.468
	l45.311-45.312C361.238,20.875,311.051,0,255.982,0c-55.077,0-105.263,20.875-143.106,55.155L158.219,100.467z"/>
<path style="fill:#CCD1D9;" d="M255.982,0C138.157,0,42.674,95.529,42.674,213.339V331.32h21.328V213.339
	c0-25.937,5.078-51.062,15.062-74.717c9.687-22.875,23.531-43.405,41.155-61.03c17.656-17.655,38.187-31.499,61.03-41.155
	c23.656-10.03,48.811-15.093,74.732-15.093c25.914,0,51.068,5.062,74.725,15.093c22.875,9.656,43.404,23.5,61.029,41.155
	c17.656,17.625,31.5,38.155,41.156,61.03c10,23.655,15.092,48.78,15.092,74.717V331.32h21.312V213.339
	C469.297,95.529,373.798,0,255.982,0z"/>
<path style="fill:#434A54;" d="M426.642,511.988c-1.625,0-3.281-0.375-4.844-1.172c-5.25-2.672-7.312-9.094-4.656-14.344
	c0.125-0.219,12.562-25.531,0.781-42.358c-19.344-27.546-1.406-61.108-0.625-62.515c2.812-5.172,9.281-7.078,14.469-4.25
	c5.156,2.812,7.062,9.266,4.25,14.438c-0.188,0.359-12.281,23.5-0.625,40.077c19.186,27.374,1.531,62.812,0.75,64.296
	C434.267,509.863,430.517,511.988,426.642,511.988z"/>
<path style="fill:#FFCE54;" d="M255.982,384.662c-4.812,0-9.031-3.233-10.281-7.874l-23.593-86.982l-9.531,24.108
	c-1.609,4.078-5.531,6.75-9.921,6.75h-53.327c-5.89,0-10.671-4.781-10.671-10.672c0-5.89,4.781-10.655,10.671-10.655h46.077
	l18.671-47.265c1.688-4.266,5.922-6.984,10.516-6.719c4.578,0.25,8.484,3.422,9.687,7.859l21.703,80.029l21.727-80.029
	c1.188-4.438,5.094-7.609,9.686-7.859c4.594-0.266,8.812,2.453,10.5,6.734l18.688,47.249h46.062c5.904,0,10.686,4.766,10.686,10.655
	c0,5.891-4.781,10.672-10.686,10.672h-53.312c-4.375,0-8.312-2.672-9.938-6.75l-9.531-24.108l-23.584,86.982
	C265.029,381.429,260.81,384.662,255.982,384.662z"/>
<path style="fill:#DA4453;" d="M405.298,309.336c0,41.219,23.906,74.654,53.342,74.654c29.469,0,53.344-33.436,53.344-74.654
	c0-41.248-23.875-74.686-53.344-74.686C429.204,234.65,405.298,268.088,405.298,309.336z"/>
<path style="fill:#ED5564;" d="M383.986,383.99c0,11.781,9.531,21.344,21.312,21.344h42.686c11.781,0,21.312-9.562,21.312-21.344
	V234.65c0-11.78-9.531-21.312-21.312-21.312h-42.686c-11.781,0-21.312,9.531-21.312,21.312V383.99z"/>
<g>
	<path style="fill:#DA4453;" d="M394.642,245.338c0-5.906-4.781-10.688-10.656-10.688v21.344
		C389.861,255.994,394.642,251.213,394.642,245.338z"/>
	<path style="fill:#DA4453;" d="M394.642,287.993c0-5.875-4.781-10.655-10.656-10.655v21.312
		C389.861,298.649,394.642,293.899,394.642,287.993z"/>
	<path style="fill:#DA4453;" d="M394.642,330.648c0-5.875-4.781-10.656-10.656-10.656v21.344
		C389.861,341.336,394.642,336.555,394.642,330.648z"/>
	<path style="fill:#DA4453;" d="M394.642,373.335c0-5.906-4.781-10.688-10.656-10.688v21.343
		C389.861,383.99,394.642,379.21,394.642,373.335z"/>
	<path style="fill:#DA4453;" d="M106.673,309.336c0,41.219-23.89,74.654-53.343,74.654c-29.452,0-53.327-33.436-53.327-74.654
		c0-41.248,23.875-74.686,53.327-74.686C82.783,234.65,106.673,268.088,106.673,309.336z"/>
</g>
<path style="fill:#ED5564;" d="M128.001,383.99c0,11.781-9.546,21.344-21.327,21.344H64.002c-11.781,0-21.328-9.562-21.328-21.344
	V234.65c0-11.78,9.546-21.312,21.328-21.312h42.671c11.781,0,21.327,9.531,21.327,21.312V383.99z"/>
<g>
	<path style="fill:#DA4453;" d="M117.328,245.338c0-5.906,4.781-10.688,10.671-10.688v21.344
		C122.11,255.994,117.328,251.213,117.328,245.338z"/>
	<path style="fill:#DA4453;" d="M117.328,287.993c0-5.875,4.781-10.655,10.671-10.655v21.312
		C122.11,298.649,117.328,293.899,117.328,287.993z"/>
	<path style="fill:#DA4453;" d="M117.328,330.648c0-5.875,4.781-10.656,10.671-10.656v21.344
		C122.11,341.336,117.328,336.555,117.328,330.648z"/>
	<path style="fill:#DA4453;" d="M117.328,373.335c0-5.906,4.781-10.688,10.671-10.688v21.343
		C122.11,383.99,117.328,379.21,117.328,373.335z"/>
</g>
<g>
</g>
<g>
</g>
<g>
</g>
<g>
</g>
<g>
</g>
<g>
</g>
<g>
</g>
<g>
</g>
<g>
</g>
<g>
</g>
<g>
</g>
<g>
</g>
<g>
</g>
<g>
</g>
<g>
</g>
</svg>
