<svg width="25" height="25" viewBox="0 0 25 25" fill="none" xmlns="http://www.w3.org/2000/svg">
<path d="M5.77197 12.5002L12.481 5.79126C13.0913 5.18091 13.0913 4.19214 12.481 3.58179C11.8706 2.97144 10.8818 2.97144 10.2715 3.58179L2.45898 11.3943C1.84863 12.0046 1.84863 12.9934 2.45898 13.6038L10.2715 21.4163C10.5742 21.7239 10.9746 21.8752 11.375 21.8752C11.7754 21.8752 12.1748 21.7227 12.4795 21.4175C13.0898 20.8071 13.0898 19.8184 12.4795 19.208L5.77197 12.5002ZM15.1494 12.5002L21.8584 5.79126C22.4688 5.18091 22.4688 4.19214 21.8584 3.58179C21.248 2.97144 20.2593 2.97144 19.6489 3.58179L11.8364 11.3943C11.2261 12.0046 11.2261 12.9934 11.8364 13.6038L19.6489 21.4163C19.9492 21.7239 20.3496 21.8752 20.75 21.8752C21.1504 21.8752 21.5498 21.7227 21.8545 21.4175C22.4648 20.8071 22.4648 19.8184 21.8545 19.208L15.1494 12.5002Z" fill="black"/>
</svg>
