<svg width="25" height="25" viewBox="0 0 25 25" fill="none" xmlns="http://www.w3.org/2000/svg">
<g clip-path="url(#clip0_95_567)">
<path d="M14.041 11.3962L6.22852 3.58374C5.61816 2.97339 4.62939 2.97339 4.01904 3.58374C3.40869 4.19409 3.40869 5.18286 4.01904 5.79321L10.7305 12.4998L4.02148 19.2087C3.41113 19.8191 3.41113 20.8079 4.02148 21.4182C4.32568 21.7234 4.7251 21.8748 5.125 21.8748C5.5249 21.8748 5.9248 21.7222 6.22949 21.417L14.042 13.6045C14.6514 12.9929 14.6514 12.0066 14.041 11.3962ZM23.416 11.3962L15.6035 3.58374C14.9932 2.97339 14.0044 2.97339 13.394 3.58374C12.7837 4.19409 12.7837 5.18286 13.394 5.79321L20.1055 12.4998L13.3965 19.2087C12.7861 19.8191 12.7861 20.8079 13.3965 21.4182C13.6992 21.7234 14.0996 21.8748 14.5 21.8748C14.9004 21.8748 15.2998 21.7222 15.6045 21.417L23.417 13.6045C24.0264 12.9929 24.0264 12.0066 23.416 11.3962Z" fill="black"/>
</g>
<defs>
<clipPath id="clip0_95_567">
<rect width="21.875" height="25" fill="white" transform="translate(2)"/>
</clipPath>
</defs>
</svg>
