<svg width="25" height="25" viewBox="0 0 25 25" fill="none" xmlns="http://www.w3.org/2000/svg">
<g clip-path="url(#clip0_95_609)">
<path d="M12.5 25C19.4036 25 25 19.4036 25 12.5C25 5.59644 19.4036 0 12.5 0C5.59644 0 0 5.59644 0 12.5C0 19.4036 5.59644 25 12.5 25Z" fill="#F7CFA2"/>
<path d="M6.41012 2.79639C5.64634 2.79639 5.01392 3.41235 5.01392 4.19259V20.8196C5.01392 21.5834 5.62988 22.2158 6.41012 22.2158C7.1739 22.2158 7.80632 21.5998 7.80632 20.8196V4.19672C7.80632 3.42881 7.1739 2.79639 6.41012 2.79639Z" fill="#646B79"/>
<path d="M12.5 2.79639C11.7362 2.79639 11.1038 3.41235 11.1038 4.19259V20.8196C11.1038 21.5834 11.7197 22.2158 12.5 22.2158C13.2637 22.2158 13.8962 21.5998 13.8962 20.8196V4.19672C13.8962 3.42881 13.2637 2.79639 12.5 2.79639Z" fill="#646B79"/>
<path d="M18.5898 2.79639C17.826 2.79639 17.1936 3.41235 17.1936 4.19259V20.8196C17.1936 21.5834 17.8096 22.2158 18.5898 22.2158C19.3536 22.2158 19.986 21.5998 19.986 20.8196V4.19672C19.9901 3.42881 19.3577 2.79639 18.5898 2.79639Z" fill="#646B79"/>
<path d="M5.00989 17.2759V20.8033C5.00989 21.5671 5.62585 22.1995 6.40609 22.1995C7.16987 22.1995 7.80229 21.5835 7.80229 20.8033V17.2759H5.00989Z" fill="#333842"/>
<path d="M11.1038 12.1675V20.8239C11.1038 21.5876 11.7197 22.2201 12.5 22.2201C13.2637 22.2201 13.8962 21.6041 13.8962 20.8239V12.1675H11.1038Z" fill="#333842"/>
<path d="M17.1937 8.8208V20.8034C17.1937 21.5671 17.8097 22.1996 18.5899 22.1996C19.3537 22.1996 19.9861 21.5836 19.9861 20.8034V8.8208H17.1937Z" fill="#333842"/>
<path d="M8.22106 16.3271H4.591C4.00788 16.3271 3.52747 16.8117 3.52747 17.3907V18.3229C3.52747 18.906 4.01201 19.3864 4.591 19.3864H8.23752C8.82064 19.3864 9.30105 18.9019 9.30105 18.3229V17.3907C9.28873 16.8118 8.82064 16.3271 8.22106 16.3271Z" fill="#F0582F"/>
<path d="M14.315 11.2349H10.6849C10.1018 11.2349 9.62134 11.7194 9.62134 12.2984V13.2306C9.62134 13.8137 10.1059 14.2941 10.6849 14.2941H14.3314C14.9145 14.2941 15.3949 13.8096 15.3949 13.2306V12.2984C15.395 11.7194 14.9145 11.2349 14.315 11.2349Z" fill="#F0582F"/>
<path d="M20.4049 7.42432H16.7584C16.1752 7.42432 15.6948 7.90886 15.6948 8.48786V9.42003C15.6948 10.0032 16.1794 10.4836 16.7584 10.4836H20.4049C20.988 10.4836 21.4684 9.99903 21.4684 9.42003V8.48786C21.489 7.90473 21.0045 7.42432 20.4049 7.42432Z" fill="#F0582F"/>
</g>
<defs>
<clipPath id="clip0_95_609">
<rect width="25" height="25" fill="white"/>
</clipPath>
</defs>
</svg>
