<svg viewBox="0 0 320 76.78149375205797" height="76.78149375205797" width="320" style="width: 320px; height: 76.7815px; position: absolute; top: 50%; left: 50%; transform: translate(-50%, -50%) scale(0.599844); z-index: 0; cursor: pointer;"><defs id="SvgjsDefs1060"></defs><g id="SvgjsG1061" featurekey="odWo6G-0" transform="matrix(0.7740069031715393,0,0,0.7740069031715393,-2.2454656300592837,-13.854718754030303)" fill="#11999e"><g xmlns="http://www.w3.org/2000/svg"><g><path d="M4.2658997,116.099884H3.5989075c-0.2763672,0-0.5,0.2236328-0.5,0.5s0.2236328,0.5,0.5,0.5h0.6669922    c0.2763672,0,0.5-0.2236328,0.5-0.5S4.5422668,116.099884,4.2658997,116.099884z"></path><path d="M131.5989075,116.099884h-0.75c-0.2763672,0-0.5,0.2236328-0.5,0.5s0.2236328,0.5,0.5,0.5h0.75    c0.2763672,0,0.5-0.2236328,0.5-0.5S131.8752747,116.099884,131.5989075,116.099884z"></path><path d="M129.5511169,31.7900085h-20.1300049c-1.2999878,0-2.3600464,1.0599976-2.3600464,2.3599854v6.7699585h-8.8499756    c-2.8300171-7.0499878-8.0499878-12.9399414-14.7299805-16.6299438c-0.2600098-1.7900391-1.4400024-3.3400269-3.1000366-3.9900513    c-4.0599976-1.5899658-8.3599854-2.3999634-12.7799683-2.3999634c-4.4100342,0-8.7000122,0.8099976-12.7700195,2.3900146    c-1.6599731,0.6499634-2.8399658,2.1999512-3.0999756,4c-6.6799927,3.6799927-11.9000244,9.5599976-14.75,16.6299438H15.631073    c-0.2799683,0-0.5,0.2200317-0.5,0.5v3.4500122H5.2610779c-1.3299561,0-2.3599854,1.1000366-2.3599854,2.3699951v12.7700195    c0,1.289978,1.0599976,2.3400269,2.3599854,2.3400269h9.8699951v50.6699829c0,0.2799683,0.2200317,0.5,0.5,0.5h48.4000244    c1.5200195,0,2.7799683,1.1199951,3.0200195,2.5800171H9.2610779c-0.2699585,0-0.5,0.2199707-0.5,0.5    c0,0.2799683,0.2300415,0.5,0.5,0.5h116.5900269c0.2700195,0,0.5-0.2200317,0.5-0.5c0-0.2800293-0.2299805-0.5-0.5-0.5H68.1510925    c0.2399902-1.460022,1.4899902-2.5800171,3.0200195-2.5800171h48.3899536c0.2800293,0,0.5-0.2200317,0.5-0.5v-63.75h9.4900513    c1.2999878,0,2.3499756-1.0499878,2.3499756-2.3500366V34.1499939    C131.9010925,32.8500061,130.8511047,31.7900085,129.5511169,31.7900085z M83.5010681,25.4599915    c9.7700195,5.6199951,16.0900269,16.0499878,16.0900269,27.7399902v4.1199951    c-1.0200195-0.9199829-2.2399902-1.6099854-3.5999756-1.9899902v-2.1300049    c0-10.1400146-5.4100342-19.3900146-14.0500488-24.4799805C82.841095,27.8599548,83.4010925,26.6999817,83.5010681,25.4599915z     M81.7210999,69.3799744v-0.039978c0-3.0200195-0.9799805-5.8099976-2.6300049-8.0800171h13.8099976v8.1199951H81.7210999z     M92.9010925,70.3799744v8.1300049H78.2210999c1.9500122-2.2000122,3.2199707-5.0200195,3.4500122-8.1300049H92.9010925z     M78.2911072,60.2599792c-2.5-2.8400269-6.1300049-4.6599731-10.1900024-4.710022v-6.8299561    c0-3.75,3.0499878-6.8000488,6.789978-6.8000488h17.6500244c1.6199951,3.5600586,2.4500122,7.3500366,2.4500122,11.2800293    v1.9099731c-0.0599976-0.0099487-0.1100464-0.0299683-0.1700439-0.039978    c-1.0100098-0.1799927-1.9199829,0.6099854-1.9199829,1.6199951v3.5700073H78.2911072z M54.1011047,69.3799744H42.2911072    V56.6999817c0-1.039978-0.9400024-1.8200073-1.9100342-1.6300049c-0.0599976,0.0100098-0.1199951,0.0300293-0.1799927,0.039978    v-1.9099731c0-3.9299927,0.8300171-7.7199707,2.4500122-11.2800293h17.6599731    c3.7400513,0,6.7900391,3.0500488,6.7900391,6.8000488v6.8599854    C59.8110657,56.0099792,54.0710754,62.0799866,54.1011047,69.3799744z M54.1510925,70.3799744    c0.2299805,3.1099854,1.5,5.9299927,3.460022,8.1300049H42.2911072v-8.1300049H54.1510925z M41.2911072,56.6999817v25.4899902    c0,0.4000244-0.3500366,0.710022-0.7399902,0.6500244c-4.0100098-0.6000366-7.0400391-4.1199951-7.0400391-8.1900024V64.230011    c0-1.5700073,0.4400024-3.0900269,1.2900391-4.4200439c1.1699829-1.9400024,3.289978-3.4099731,5.7599487-3.75    C40.9410706,55.980011,41.2911072,56.309967,41.2911072,56.6999817z M60.3110657,40.9199524H43.1410828    c2.4199829-4.8099976,6.2800293-8.8799438,10.9800415-11.5499878c1.3499756,0.8300171,2.9599609,0.9899902,4.4399414,0.4100342    c5.7700195-2.2300415,12.3100586-2.2300415,18.0800171,0.0100098c1.4899902,0.5799561,3.0599976,0.4299927,4.4400024-0.4200439    c4.6900024,2.6700439,8.5499878,6.7399902,10.9700317,11.5499878H74.8910828c-3.3399658,0-6.1799927,2.1200562-7.289978,5.0800171    C66.4911194,43.0400085,63.6510925,40.9199524,60.3110657,40.9199524z M93.9010925,56.6899719    c0-0.2000122,0.0900269-0.3800049,0.2399902-0.5100098c0.1400146-0.1099854,0.3200073-0.1599731,0.5300293-0.1199951    c4,0.5700073,7.0199585,4.0800171,7.0199585,8.1700439v10.4199829c0,4.0700073-3.039978,7.5899658-7.0599976,8.1900024    c-0.3699951,0.0599976-0.7299805-0.2399902-0.7299805-0.6400146V56.6899719z M55.1910706,21.2200012    c3.9500122-1.5400391,8.1300049-2.3200073,12.4100342-2.3200073c4.289978,0,8.4699707,0.789978,12.4199829,2.3300171    c1.5,0.5899658,2.5100098,2.1099854,2.5100098,3.7799683v0.0100098c0,2.8300171-2.8300171,4.8900146-5.5300293,3.8399658    c-6-2.3399658-12.7399902-2.3599854-18.7999878-0.0099487c-2.6900024,1.0499878-5.5199585-1-5.5199585-3.8400269    C52.6811218,23.3299866,53.6910706,21.809967,55.1910706,21.2200012z M51.7010803,25.4599915    c0.1099854,1.2399902,0.6700439,2.3999634,1.5700073,3.2600098c-8.7349319,5.1328773-14.0700073,14.4974785-14.0700073,24.4799805    v2.1300049c-1.3200073,0.3800049-2.5599976,1.0599976-3.5999756,1.9899902v-4.1199951    C35.6011047,42.0496445,41.5146675,31.3022194,51.7010803,25.4599915z M15.631073,61.3500061    c-0.0099487,0-0.0099487,0-0.0099487,0H5.2610779c-0.75,0-1.3599854-0.6000366-1.3599854-1.3400269V47.2399597    c0-0.7399902,0.5999756-1.3699951,1.3599854-1.3699951H25.381073c0.75,0,1.3699951,0.6199951,1.3699951,1.3699951v12.7700195    c0,0.6900024-0.5299683,1.2700195-1.25,1.3400269h-2.0299683c-0.2800293,0-0.5,0.2299805-0.5,0.5v3.3299561l-5.0200195-3.7299805    c-0.0899658-0.0599976-0.1900024-0.0999756-0.2999878-0.0999756h-2.0100098    C15.6410828,61.3500061,15.6410828,61.3500061,15.631073,61.3500061z M67.1011047,113.9199524    c-0.75-0.8599854-1.8500366-1.3999634-3.0700073-1.3999634H16.131073V62.3500061h1.3600464l5.6799927,4.2299805    c0.0899658,0.0700073,0.1900024,0.0999756,0.2999878,0.0999756c0.2700195,0,0.5-0.2199707,0.5-0.5v-3.8299561    c1.3699951,0,1.5200195,0.0099487,1.6400146-0.0100098c1.2199707-0.1199951,2.1399536-1.1199951,2.1399536-2.3300171V47.2399597    c0-1.3099976-1.0599976-2.3699951-2.3699951-2.3699951h-9.25v-2.9500122h20.4700317    c-1.3200073,3.6000366-2,7.3900146-2,11.2800293v5.1699829c-1.0100098,1.25-1.7000122,2.75-1.9700317,4.4200439    c-3.0199585,0.1999512-5.4199829,2.7099609-5.4199829,5.7699585v0.8200073h-2.4699707c-0.2800293,0-0.5,0.2200317-0.5,0.5    c0,0.2800293,0.2199707,0.5,0.5,0.5h2.4699707v0.5c0,3.1099854,2.460022,5.6400146,5.539978,5.7800293    c0.1400146,0.6399536,0.3500366,1.2599487,0.6200562,1.8499756h-8.6300049c-0.2800293,0-0.5,0.2200317-0.5,0.5    c0,0.2800293,0.2199707,0.5,0.5,0.5h9.1699829c1.3999634,2.2600098,3.7399902,3.9000244,6.4899902,4.3200073    c1,0.1500244,1.8900146-0.6300049,1.8900146-1.6400146v-2.6799927h16.2000122    c0.0299683,0,0.0599976-0.0100098,0.0799561-0.0200195c2.2800293,2.1000366,5.25,3.4400024,8.5300293,3.6300049V113.9199524z     M28.2110901,69.8599548V68.559967c0-2.4699707,1.8900146-4.5100098,4.2999878-4.7600098v11.8500366    c-2.4099731-0.25-4.2999878-2.2900391-4.2999878-4.7700195v-0.9799805c0.0100098,0,0.0100098-0.0100098,0.0100098-0.0200195    S28.2210999,69.8599548,28.2110901,69.8599548z M55.1011047,69.3399963c0-7.0599976,5.75-12.7999878,12.8200073-12.7999878    c7.0599976,0,12.7999878,5.7399902,12.7999878,12.7999878c0,7.0700073-5.7399902,12.8200073-12.7999878,12.8200073    C60.8511047,82.1600037,55.1011047,76.4100037,55.1011047,69.3399963z M119.0610657,112.519989H71.1711121    c-1.2200317,0-2.3200073,0.539978-3.0700073,1.3999634V83.1499939c3.5200195-0.0400391,6.7199707-1.4199829,9.1300049-3.6400146    h15.6699829v2.6900024c0,1,0.8900146,1.7700195,1.8800049,1.6300049c2.7700195-0.4100342,5.1099854-2.0599976,6.5100098-4.3200073    h9.1599731c0.2800293,0,0.5-0.2199707,0.5-0.5c0-0.2799683-0.2199707-0.5-0.5-0.5h-8.6199951    c0.2700195-0.5900269,0.4799805-1.210022,0.6199951-1.8499756c3.0700073-0.1400146,5.5300293-2.6700439,5.5300293-5.7800293v-0.5    h2.4699707c0.2800293,0,0.5-0.2199707,0.5-0.5c0-0.2799683-0.2199707-0.5-0.5-0.5h-2.4699707V68.559967    c0-3.0599976-2.4000244-5.5700073-5.4100342-5.7699585c-0.0899658-0.5200195-0.2099609-1.0400391-0.3800049-1.5300293h8.2600098    c0.2800293,0,0.5-0.2199707,0.5-0.5c0-0.2799683-0.2199707-0.5-0.5-0.5h-8.6599731    c-0.3200073-0.6799927-0.7300415-1.3099976-1.2000122-1.8900146v-5.1699829c0-3.8900146-0.6799927-7.6799927-2-11.2800293    h8.4699707v5c0,1.3000488,1.0600586,2.3500366,2.3600464,2.3500366h1.4199829v3.8300171    c0,0.1900024,0.1099854,0.3599854,0.2800293,0.4499512c0.1699829,0.0800171,0.3699951,0.0599976,0.5199585-0.0499878    l5.6799927-4.2299805h1.7399902V112.519989z M102.6910706,75.6499939V63.7999573    c2.4000244,0.25,4.2900391,2.2900391,4.2900391,4.7600098v2.3200073    C106.9811096,73.3599548,105.091095,75.3999939,102.6910706,75.6499939z M130.9010925,46.9199524    c0,0.75-0.5999756,1.3500366-1.3499756,1.3500366h-9.9700317c-0.0100098,0-0.0100098,0-0.0200195,0    c-0.0099487,0-0.0099487,0-0.0199585,0h-2.3800049c-0.1099854,0-0.2200317,0.039978-0.2999878,0.0999756l-5.0200195,3.7399902    V48.769989c0-0.2700195-0.2199707-0.5-0.5-0.5h-1.9199829c-0.7600098,0-1.3600464-0.5900269-1.3600464-1.3500366V34.1499939    c0-0.75,0.6100464-1.3599854,1.3600464-1.3599854h20.1300049c0.75,0,1.3499756,0.6099854,1.3499756,1.3599854V46.9199524z"></path><path d="M58.490509,87.6350403H24.7453918c-0.2763672,0-0.5,0.2236328-0.5,0.5s0.2236328,0.5,0.5,0.5H58.490509    c0.2763672,0,0.5-0.2236328,0.5-0.5S58.7668762,87.6350403,58.490509,87.6350403z"></path><path d="M58.490509,96.7615051H24.7453918c-0.2763672,0-0.5,0.2236328-0.5,0.5s0.2236328,0.5,0.5,0.5H58.490509    c0.2763672,0,0.5-0.2236328,0.5-0.5S58.7668762,96.7615051,58.490509,96.7615051z"></path><path d="M110.4553528,87.6350403H76.7102356c-0.2763672,0-0.5,0.2236328-0.5,0.5s0.2236328,0.5,0.5,0.5h33.7451172    c0.2763672,0,0.5-0.2236328,0.5-0.5S110.73172,87.6350403,110.4553528,87.6350403z"></path><path d="M110.4553528,96.7615051H76.7102356c-0.2763672,0-0.5,0.2236328-0.5,0.5s0.2236328,0.5,0.5,0.5h33.7451172    c0.2763672,0,0.5-0.2236328,0.5-0.5S110.73172,96.7615051,110.4553528,96.7615051z"></path><path d="M74.3283997,69.3489075c0-0.7915039-0.390625-1.527832-1.0439453-1.96875L67.16922,63.2170715    c-0.7314453-0.4941406-1.671875-0.5424805-2.4550781-0.1274414c-0.7929688,0.4213867-1.2666016,1.2094727-1.2666016,2.1074219    v8.3037109c0,0.8979492,0.4736328,1.6860352,1.2666016,2.1074219c0.3525391,0.1875,0.7382813,0.2807617,1.1220703,0.2807617    c0.4667969,0,0.9326172-0.1376953,1.3349609-0.409668l6.1132813-4.1616211    C73.9387512,70.8757629,74.3283997,70.1399231,74.3283997,69.3489075z M72.7229309,70.4900208    c0,0.0004883-0.0009766,0.0009766-0.0009766,0.0014648l-6.1113281,4.1601563    c-0.4326172,0.2919922-0.9648438,0.3178711-1.4277344,0.0737305c-0.4599609-0.2451172-0.7353516-0.7026367-0.7353516-1.2246094    V65.197052c0-0.5219727,0.2753906-0.9794922,0.7353516-1.2241211c0.2099609-0.1113281,0.4335938-0.1665039,0.65625-0.1665039    c0.2685547,0,0.5341797,0.0800781,0.7695313,0.2382813l6.1142578,4.1630859    c0.3847656,0.2597656,0.6054688,0.675293,0.6054688,1.1411133S73.1076965,70.2302551,72.7229309,70.4900208z"></path><path d="M47.8039856,61.2453918h5.9365234c0.2763672,0,0.5-0.2236328,0.5-0.5s-0.2236328-0.5-0.5-0.5h-5.9365234    c-0.2763672,0-0.5,0.2236328-0.5,0.5S47.5276184,61.2453918,47.8039856,61.2453918z"></path><path d="M57.9416809,57.04422c0.2763672,0,0.5-0.2236328,0.5-0.5v-5.9365234c0-0.2763672-0.2236328-0.5-0.5-0.5    s-0.5,0.2236328-0.5,0.5V56.54422C57.4416809,56.8205872,57.6653137,57.04422,57.9416809,57.04422z"></path><path d="M55.4875793,58.9983215c0.0976563,0.0976563,0.2255859,0.1464844,0.3535156,0.1464844    s0.2558594-0.0488281,0.3535156-0.1464844c0.1953125-0.1953125,0.1953125-0.5117188,0-0.7070313l-3.390625-3.3911133    c-0.1953125-0.1953125-0.5117188-0.1953125-0.7070313,0s-0.1953125,0.5117188,0,0.7070313L55.4875793,58.9983215z"></path><path d="M114.9627991,37.6496277h6.5393066c-0.1383057,0.7880249-0.5253296,2.1981201-1.5899048,3.5391846    c-0.6221313-0.7050781-1.0644531-1.4102173-1.3686523-2.0323486c-0.1520996-0.3040771-0.5253906-0.4285278-0.8157349-0.2764282    c-0.3041382,0.1520386-0.4285889,0.5115356-0.2764282,0.8156128c0.359436,0.7189331,0.8709717,1.5484009,1.6174927,2.3917236    c-0.8433228,0.760437-1.9769897,1.4517212-3.4977417,1.9078979c-0.3317871,0.0967407-0.5115356,0.4285278-0.4147339,0.760437    c0.0829468,0.2626343,0.3179932,0.4285278,0.5806885,0.4285278c0.0690918,0,0.1243896,0,0.1796265-0.0276489    c1.7281494-0.5253906,3.0415649-1.3272095,4.0093384-2.2258301c0.8986206,0.8018188,2.0322876,1.5898438,3.4838867,2.2119751    c0.0829468,0.02771,0.1658936,0.0415039,0.2488403,0.0415039c0.2350464,0,0.4562988-0.1383057,0.5529785-0.359436    c0.1383057-0.3180542,0-0.6774292-0.3041382-0.8018799c-1.3272095-0.5667725-2.3502197-1.2719116-3.1520996-1.9907837    c1.3825073-1.6729126,1.8387451-3.4700928,1.9770508-4.3825073h1.5068359c0.3317871,0,0.6083374-0.2765503,0.6083374-0.6221924    c0-0.3317871-0.2765503-0.6082764-0.6083374-0.6082764c-0.1569443,0-4.1843796,0-4.0368652,0v-1.2719116    c0-0.3317871-0.2626953-0.6082764-0.6082764-0.6082764c-0.3317871,0-0.6083374,0.2764893-0.6083374,0.6082764v1.2719116    h-4.0231323c-0.3456421,0-0.6082153,0.2764893-0.6082153,0.6082764    C114.3545837,37.3730774,114.617157,37.6496277,114.9627991,37.6496277z"></path><path d="M17.1000061,54.2519836l1.4100342,3.3988647c0.0890503,0.2226563,0.3116455,0.3562012,0.5343018,0.3562012    c0.0742188,0,0.1483765-0.0147705,0.2078247-0.0444946c0.296875-0.133606,0.4452515-0.460144,0.3116455-0.756958    l-3.7106323-9.0093384c-0.1781006-0.4303589-0.8756104-0.4303589-1.0537109,0l-3.7105713,9.0093384    c-0.133606,0.296814,0.0148315,0.6233521,0.296875,0.756958c0.2967529,0.1187744,0.6381836-0.0297241,0.7568359-0.3117065    l1.3952026-3.3988647H17.1000061z M15.3189392,49.9180603l1.3209839,3.19104h-2.6271362L15.3189392,49.9180603z"></path></g></g></g><g id="SvgjsG1062" featurekey="VGK2BT-0" transform="matrix(2.944101095199585,0,0,2.944101095199585,116.25782594017414,0.08719332186438322)" fill="#40514e"><path d="M9.9153 8.288 l-6.7288 0 l0 4.1356 l3.8983 0 c0.16949 0 0.28814 0.11864 0.28814 0.28814 l0 1.2712 c0 0.18644 -0.11864 0.28814 -0.28814 0.28814 l-3.8983 0 l0.016784 3.8814 l6.712 0 c0.16949 0 0.28814 0.11864 0.28814 0.28814 l0 1.2712 c0 0.16949 -0.11864 0.28814 -0.28814 0.28814 l-8.3559 0 c-0.16949 0 -0.28831 -0.11864 -0.28831 -0.28814 l0 -13 c0 -0.15254 0.10186 -0.27119 0.27119 -0.27119 l8.3731 0 c0.16949 0 0.28814 0.11864 0.28814 0.27119 l0 1.3051 c0 0.16949 -0.11864 0.27119 -0.28814 0.27119 z M20.40663728813559 19.64424 c0.033898 0.18644 -0.016784 0.35576 -0.16916 0.35576 l-1.1017 0 c-0.44068 0 -0.66102 -0.28797 -0.66102 -0.6778 l0 -4.4068 c0 -1.1186 -0.77966 -1.7627 -1.8983 -1.7627 c-0.9661 0 -1.7797 0.45763 -2.4575 1.1186 l0 5.4578 c0 0.15238 -0.11864 0.27102 -0.27119 0.27102 l-1.3222 0 c-0.15238 0 -0.25407 -0.11864 -0.25407 -0.27102 l0 -7.8476 c0 -0.15238 0.10169 -0.27119 0.25407 -0.27119 l0.91525 0 c0.40678 0 0.66102 0.42373 0.67797 0.72881 l0 0.16949 c0.66102 -0.50864 1.5422 -1.0171 2.6947 -1.0171 c1.7458 0 3.4915 1.1019 3.4915 3.2205 l0 3.7627 c0.016784 0.47458 0.050681 0.83051 0.10153 1.1695 z M39.881186440677965 6.4239999999999995 c0.15254 0 0.32203 0.13576 0.22034 0.3561 l-6.3559 13.068 c-0.050847 0.11864 -0.16949 0.22017 -0.30508 0.22017 l-0.13559 0 c-0.15254 0 -0.25424 -0.10153 -0.32203 -0.22017 l-2.0678 -4.339 l-2.0678 4.3559 c-0.067797 0.11864 -0.16966 0.22017 -0.32203 0.22017 l-0.13559 0 c-0.13559 0 -0.25424 -0.10153 -0.30508 -0.22017 l-6.3559 -13.085 c-0.10169 -0.20339 0.067797 -0.33898 0.22034 -0.33898 l1.7288 0 c0.15254 0 0.22034 0.13559 0.30508 0.30508 l4.4746 9.5763 l1.3898 -3.0508 l-3.0847 -6.5085 c-0.10169 -0.20339 0.067797 -0.33898 0.22034 -0.33898 l1.7119 0 c0.16949 0 0.23729 0.13559 0.30508 0.30525 l1.9153 4.2034 l1.9153 -4.1864 c0.067797 -0.16949 0.13559 -0.30508 0.30508 -0.30508 l1.7119 0 c0.16949 0 0.32203 0.13559 0.22034 0.35593 l-3.0847 6.4744 l1.3898 3.0508 l4.4746 -9.5932 c0.084746 -0.16966 0.15254 -0.30525 0.30508 -0.30525 l1.7288 0 z M43.643918644067796 20.11864 c2.3729 0 4.339 -1.8812 4.339 -4.3049 c0 -2.4746 -1.9661 -4.322 -4.339 -4.322 s-4.339 1.8475 -4.339 4.322 c0 2.4237 1.9661 4.3049 4.339 4.3049 z M43.643918644067796 18.39 c-1.4576 0 -2.5424 -1.2034 -2.5424 -2.5593 c0 -1.4068 1.0847 -2.6102 2.5424 -2.6102 s2.5424 1.2034 2.5424 2.6102 c0 1.3559 -1.0847 2.5593 -2.5424 2.5593 z M55.50832203389831 12.034099999999999 c0.18644 0.11864 0.23729 0.22017 0.11848 0.40661 l-0.69475 1.0169 c-0.084746 0.11864 -0.20339 0.15254 -0.35593 0.11864 c-0.35593 -0.16949 -0.66102 -0.32203 -1.2203 -0.32203 s-1.4407 0.23729 -1.9153 1.2881 l0 5.1866 c0 0.15238 -0.10169 0.27102 -0.25424 0.27102 l-1.339 0 c-0.15254 0 -0.25424 -0.11864 -0.25424 -0.27102 l0 -7.8476 c0 -0.15238 0.11864 -0.27119 0.25424 -0.27119 l0.9322 0 c0.40678 0 0.66102 0.42373 0.66102 0.72881 l0 0.11881 c0.59322 -0.54237 1.3051 -0.91525 2.2373 -0.91525 c0.86441 0 1.5085 0.27119 1.8305 0.49153 z M58.898347457627125 6.441000000000001 l-1.3053 0 c-0.16933 0 -0.27119 0.11864 -0.27119 0.27119 l0 12.61 c0 0.38983 0.23746 0.6778 0.66119 0.6778 l0.91525 0 c0.16949 0 0.27119 -0.10153 0.27119 -0.28797 l0 -13 c0 -0.15254 -0.11864 -0.27119 -0.27119 -0.27119 z M68.55928135593221 6.441000000000001 c0.38983 0 0.64424 0.25458 0.64424 0.61051 l0 12.678 c0 0.15238 -0.11864 0.27102 -0.25424 0.27102 l-0.69492 0 c-0.33898 0 -0.79661 -0.22017 -0.88119 -0.62695 c-0.59356 0.42373 -1.3902 0.74542 -2.3393 0.74542 c-2.3898 0 -3.9831 -1.932 -3.9831 -4.4066 c0 -2.5424 1.9492 -4.1695 3.9322 -4.1695 c1.0508 0 1.7964 0.3222 2.39 0.67797 l0 -4.322 c0 -0.52542 -0.10186 -0.79661 -0.15271 -1.1017 c-0.033898 -0.18661 0.033898 -0.3561 0.18644 -0.3561 l1.1525 0 z M62.864581355932216 15.712399999999999 c0 1.678 1.0847 2.6949 2.4746 2.6949 c0.83051 0 1.4915 -0.27119 2.0339 -0.57627 l0 -3.8814 c-0.62712 -0.40678 -1.322 -0.69492 -2.1017 -0.69492 c-1.0678 0 -2.4068 0.72881 -2.4068 2.4576 z"></path></g></svg>
