<svg width="25" height="25" viewBox="0 0 25 25" fill="none" xmlns="http://www.w3.org/2000/svg">
<g clip-path="url(#clip0_95_529)">
<path d="M12.5 25C19.4036 25 25 19.4036 25 12.5C25 5.59644 19.4036 0 12.5 0C5.59644 0 0 5.59644 0 12.5C0 19.4036 5.59644 25 12.5 25Z" fill="#FF7F4F"/>
<path d="M7.00659 17.7923L14.1112 24.8969C19.7307 24.1737 24.1816 19.7191 24.8988 14.0977L17.8802 7.0791L7.00659 17.7923Z" fill="#E03A00"/>
<path d="M12.5 20.1391C16.7188 20.1391 20.1388 16.719 20.1388 12.5002C20.1388 8.28137 16.7188 4.86133 12.5 4.86133C8.28112 4.86133 4.86108 8.28137 4.86108 12.5002C4.86108 16.719 8.28112 20.1391 12.5 20.1391Z" fill="white"/>
<path d="M4.86216 12.416C4.86182 12.444 4.86108 12.4721 4.86108 12.5002C4.86108 16.719 8.2811 20.1391 12.5 20.1391C16.7188 20.1391 20.1388 16.719 20.1388 12.5002C20.1388 12.4721 20.138 12.444 20.1377 12.416H4.86216Z" fill="#D3D3D3"/>
<path d="M10.7458 7.99259L17.4773 11.879C17.9551 12.1548 17.9551 12.8445 17.4773 13.1203L10.7458 17.0068C10.268 17.2826 9.67065 16.9378 9.67065 16.386V8.61315C9.67065 8.06153 10.2679 7.71676 10.7458 7.99259Z" fill="#DB0529"/>
<path d="M9.67065 12.416V16.3866C9.67065 16.9383 10.2679 17.2832 10.7458 17.0073L17.4773 13.1209C17.744 12.9668 17.8615 12.6839 17.8304 12.416H9.67065Z" fill="#C2001B"/>
</g>
<defs>
<clipPath id="clip0_95_529">
<rect width="25" height="25" fill="white"/>
</clipPath>
</defs>
</svg>
