<svg width="25" height="25" viewBox="0 0 25 25" fill="none" xmlns="http://www.w3.org/2000/svg">
<path d="M23.4069 5.67953C22.3697 3.681 20.9246 2.17295 19.228 1.31801C18.9027 1.15424 18.5063 1.26356 18.311 1.57083L16.9821 3.66213C16.8707 3.83733 16.8419 4.05253 16.903 4.25097C16.9641 4.44934 17.1092 4.61098 17.2998 4.69305C19.5156 5.64795 21.1239 8.93529 21.1239 12.5097C21.1239 16.0414 19.5373 19.3181 17.3513 20.3012C17.1652 20.3849 17.0241 20.5448 16.9644 20.7399C16.9046 20.9351 16.9318 21.1465 17.0392 21.3202L18.3385 23.422C18.4718 23.6375 18.7033 23.758 18.9417 23.758C19.0505 23.758 19.1607 23.733 19.2635 23.6804C20.9512 22.8186 22.3875 21.3099 23.4176 19.3173C24.4527 17.3148 24.9999 14.9608 24.9999 12.5097C24.9999 10.0491 24.4491 7.68729 23.4069 5.67953ZM19.1833 22.0931L18.6371 21.2096C20.9685 19.7053 22.5412 16.2704 22.5412 12.5097C22.5412 8.7078 20.9496 5.26257 18.589 3.77605L19.1461 2.89934C21.8225 4.59591 23.5826 8.35824 23.5826 12.5096C23.5826 16.6346 21.8379 20.3846 19.1833 22.0931Z" fill="black"/>
<path d="M19.9889 12.53C19.9889 9.66462 18.7797 7.02814 16.7543 5.4777C16.5966 5.35694 16.3951 5.30805 16.1997 5.34265C16.004 5.37749 15.832 5.49269 15.7254 5.66042L14.425 7.70711C14.2388 8.0002 14.2924 8.38505 14.5515 8.61613C15.5138 9.4739 16.1116 10.9737 16.1116 12.5299C16.1116 14.057 15.5575 15.4938 14.6294 16.3734C14.3855 16.6046 14.3375 16.9752 14.5144 17.2609L15.7974 19.3326C15.9038 19.5043 16.0784 19.6225 16.2774 19.6575C16.3181 19.6647 16.3592 19.6681 16.3999 19.6681C16.5582 19.6681 16.7133 19.6151 16.8393 19.5155C18.8115 17.9571 19.9889 15.3456 19.9889 12.53ZM16.5554 17.8645L16.0054 16.9763C16.9673 15.8346 17.5289 14.2165 17.5289 12.53C17.5289 10.7861 16.9376 9.13472 15.9244 7.99007L16.4794 7.11671C17.8009 8.43419 18.5716 10.4007 18.5716 12.53C18.5716 14.6105 17.8294 16.5463 16.5554 17.8645Z" fill="black"/>
<path d="M12.3943 4.14944C12.15 4.03098 11.8595 4.06235 11.6464 4.23053L6.18562 8.53445H5.31961H4.8069H3.29399C1.47766 8.53445 0 10.3135 0 12.5002C0 14.6869 1.47766 16.4659 3.29399 16.4659H4.80686H5.31957H6.18558L11.6463 20.7699C11.7737 20.8704 11.9288 20.9221 12.0851 20.9221C12.1903 20.9221 12.296 20.8986 12.3942 20.851C12.6386 20.7324 12.7936 20.4849 12.7936 20.2134V4.78702C12.7937 4.51549 12.6386 4.2679 12.3943 4.14944ZM4.0982 15.0486H3.29399C2.25919 15.0486 1.41732 13.9054 1.41732 12.5002C1.41732 11.0949 2.25919 9.95173 3.29399 9.95173H4.0982V15.0486ZM11.3763 18.7525L6.86989 15.2007C6.74493 15.1022 6.59044 15.0486 6.43125 15.0486H5.51548V9.95169H6.43125C6.5904 9.95169 6.74493 9.89805 6.86989 9.79956L11.3763 6.24773V18.7525Z" fill="black"/>
</svg>
