<svg width="158" height="158" viewBox="0 0 158 158" fill="none" xmlns="http://www.w3.org/2000/svg">
<g filter="url(#filter0_d_70_1367)">
<circle cx="79" cy="75" r="75" fill="#FFF4D9" fill-opacity="0.5" shape-rendering="crispEdges"/>
<circle cx="79" cy="75" r="74.5" stroke="#FFC69C" shape-rendering="crispEdges"/>
</g>
<path d="M122.628 47.7176C118.479 39.7235 112.699 33.6913 105.912 30.2715C104.611 29.6165 103.026 30.0537 102.245 31.2828L96.9291 39.648C96.4835 40.3488 96.3681 41.2096 96.6126 42.0034C96.857 42.7969 97.4372 43.4434 98.1996 43.7717C107.063 47.5913 113.496 60.7407 113.496 75.0382C113.496 89.1652 107.15 102.272 98.4057 106.204C97.6614 106.539 97.097 107.179 96.858 107.959C96.6188 108.74 96.7277 109.586 97.1573 110.28L102.355 118.687C102.888 119.55 103.814 120.032 104.767 120.032C105.203 120.032 105.643 119.932 106.055 119.721C112.805 116.274 118.551 110.239 122.671 102.269C126.811 94.2586 129 84.8426 129 75.0384C129 65.1959 126.797 55.7487 122.628 47.7176ZM105.734 113.372L103.549 109.838C112.874 103.821 119.165 90.0812 119.165 75.0382C119.165 59.8307 112.799 46.0498 103.357 40.1037L105.585 36.5969C116.291 43.3831 123.331 58.4325 123.331 75.0379C123.331 91.5379 116.352 106.538 105.734 113.372Z" fill="black"/>
<path d="M108.955 75.1199C108.955 63.6585 104.119 53.1126 96.0173 46.9108C95.3865 46.4278 94.5804 46.2322 93.7987 46.3706C93.0162 46.51 92.3278 46.9707 91.9017 47.6417L86.6999 55.8284C85.9551 57.0008 86.1696 58.5402 87.2061 59.4645C91.0553 62.8956 93.4463 68.8948 93.4463 75.1198C93.4463 81.2281 91.2301 86.9753 87.5177 90.4938C86.542 91.4183 86.35 92.9008 87.0577 94.0435L92.1897 102.33C92.6152 103.017 93.3136 103.49 94.1095 103.63C94.2726 103.659 94.4366 103.673 94.5997 103.673C95.2327 103.673 95.8531 103.46 96.3572 103.062C104.246 96.8283 108.955 86.3825 108.955 75.1199ZM95.2218 96.4578L93.0216 92.9054C96.8693 88.3384 99.1157 81.866 99.1157 75.1199C99.1157 68.1443 96.7505 61.5389 92.6977 56.9603L94.9175 53.4668C100.204 58.7368 103.286 66.6026 103.286 75.1199C103.286 83.4418 100.318 91.1853 95.2218 96.4578Z" fill="black"/>
<path d="M78.5771 41.5969C77.6002 41.1231 76.4379 41.2485 75.5855 41.9213L53.7425 59.1369H50.2784H48.2276H42.176C34.9106 59.1369 29 66.253 29 74.9999C29 83.7467 34.9106 90.8628 42.176 90.8628H48.2274H50.2783H53.7423L75.5853 108.079C76.0948 108.481 76.7152 108.687 77.3404 108.687C77.7611 108.687 78.1838 108.594 78.577 108.403C79.5542 107.929 80.1745 106.939 80.1745 105.853V44.1472C80.1747 43.0611 79.5542 42.0708 78.5771 41.5969ZM45.3928 85.1936H42.176C38.0368 85.1936 34.6693 80.6208 34.6693 74.9999C34.6693 69.3789 38.0368 64.8061 42.176 64.8061H45.3928V85.1936ZM74.5054 100.009L56.4796 85.802C55.9797 85.408 55.3618 85.1935 54.725 85.1935H51.0619V64.8059H54.725C55.3616 64.8059 55.9797 64.5914 56.4796 64.1974L74.5054 49.99V100.009Z" fill="black"/>
<defs>
<filter id="filter0_d_70_1367" x="0" y="0" width="158" height="158" filterUnits="userSpaceOnUse" color-interpolation-filters="sRGB">
<feFlood flood-opacity="0" result="BackgroundImageFix"/>
<feColorMatrix in="SourceAlpha" type="matrix" values="0 0 0 0 0 0 0 0 0 0 0 0 0 0 0 0 0 0 127 0" result="hardAlpha"/>
<feOffset dy="4"/>
<feGaussianBlur stdDeviation="2"/>
<feComposite in2="hardAlpha" operator="out"/>
<feColorMatrix type="matrix" values="0 0 0 0 0 0 0 0 0 0 0 0 0 0 0 0 0 0 0.25 0"/>
<feBlend mode="normal" in2="BackgroundImageFix" result="effect1_dropShadow_70_1367"/>
<feBlend mode="normal" in="SourceGraphic" in2="effect1_dropShadow_70_1367" result="shape"/>
</filter>
</defs>
</svg>
