<svg width="22" height="25" viewBox="0 0 22 25" fill="none" xmlns="http://www.w3.org/2000/svg">
<path d="M3.77197 12.5L10.481 5.79102C11.0913 5.18066 11.0913 4.19189 10.481 3.58154C9.8706 2.97119 8.88183 2.97119 8.27148 3.58154L0.458984 11.394C-0.151367 12.0044 -0.151367 12.9932 0.458984 13.6035L8.27148 21.416C8.57422 21.7236 8.97461 21.875 9.375 21.875C9.77539 21.875 10.1748 21.7224 10.4795 21.4172C11.0898 20.8069 11.0898 19.8181 10.4795 19.2078L3.77197 12.5ZM13.1494 12.5L19.8584 5.79102C20.4688 5.18066 20.4688 4.19189 19.8584 3.58154C19.248 2.97119 18.2593 2.97119 17.6489 3.58154L9.83642 11.394C9.22607 12.0044 9.22607 12.9932 9.83642 13.6035L17.6489 21.416C17.9492 21.7236 18.3496 21.875 18.75 21.875C19.1504 21.875 19.5498 21.7224 19.8545 21.4172C20.4648 20.8069 20.4648 19.8181 19.8545 19.2078L13.1494 12.5Z" fill="black"/>
</svg>
