<svg width="25" height="25" viewBox="0 0 25 25" fill="none" xmlns="http://www.w3.org/2000/svg">
<path d="M18.3594 1.5625H8.9844C8.93317 1.56187 8.88238 1.57198 8.83528 1.59216C8.78819 1.61234 8.74584 1.64216 8.71096 1.67968L4.80471 5.58593C4.76719 5.62081 4.73737 5.66316 4.71719 5.71025C4.69701 5.75735 4.6869 5.80814 4.68753 5.85937V21.4844C4.68753 22.0024 4.8933 22.4992 5.25958 22.8654C5.62587 23.2317 6.12265 23.4375 6.64065 23.4375H18.3594C18.8774 23.4375 19.3742 23.2317 19.7405 22.8654C20.1068 22.4992 20.3125 22.0024 20.3125 21.4844V3.51562C20.3125 2.99762 20.1068 2.50084 19.7405 2.13455C19.3742 1.76827 18.8774 1.5625 18.3594 1.5625Z" fill="url(#paint0_linear_62_715)"/>
<path d="M9.1328 1.56249C9.06238 1.53058 8.98369 1.52171 8.90794 1.53714C8.83219 1.55257 8.76324 1.59152 8.71092 1.64843L4.80467 5.55468C4.73548 5.60478 4.68592 5.67745 4.66453 5.76015C4.64314 5.84286 4.65126 5.93044 4.68749 6.00781C4.71864 6.08428 4.77323 6.14892 4.84341 6.19243C4.91359 6.23594 4.99576 6.2561 5.07811 6.24999H7.42186C7.67835 6.24999 7.93232 6.19948 8.16929 6.10132C8.40625 6.00317 8.62156 5.8593 8.80293 5.67794C8.98429 5.49657 9.12816 5.28126 9.22631 5.0443C9.32447 4.80733 9.37499 4.55336 9.37499 4.29687V1.95312C9.38109 1.87077 9.36093 1.7886 9.31742 1.71842C9.27391 1.64824 9.20927 1.59365 9.1328 1.56249Z" fill="url(#paint1_linear_62_715)"/>
<path d="M16.7969 8.90625C16.5642 8.90938 16.3386 8.82584 16.1641 8.67188C15.8606 8.41569 15.4752 8.27706 15.0781 8.28125C14.6787 8.27726 14.2909 8.41576 13.9844 8.67188C13.8097 8.82305 13.5865 8.90626 13.3555 8.90626C13.1245 8.90626 12.9012 8.82305 12.7266 8.67188C12.4231 8.41569 12.0377 8.27706 11.6406 8.28125C11.2412 8.27726 10.8534 8.41576 10.5469 8.67188C10.3755 8.826 10.1523 8.90971 9.92187 8.90625C9.68916 8.90938 9.4636 8.82584 9.28906 8.67188C8.98562 8.41569 8.60023 8.27706 8.20312 8.28125C8.09952 8.28125 8.00017 8.32241 7.92691 8.39566C7.85365 8.46892 7.8125 8.56828 7.8125 8.67188C7.8125 8.77548 7.85365 8.87483 7.92691 8.94809C8.00017 9.02135 8.09952 9.0625 8.20312 9.0625C8.43383 9.05746 8.65762 9.14139 8.82813 9.29688C9.13361 9.55483 9.52209 9.69358 9.92187 9.6875C10.3196 9.69528 10.7062 9.55621 11.0078 9.29688C11.1825 9.1457 11.4057 9.06249 11.6367 9.06249C11.8677 9.06249 12.091 9.1457 12.2656 9.29688C12.5729 9.54887 12.9581 9.68659 13.3555 9.68659C13.7529 9.68659 14.138 9.54887 14.4453 9.29688C14.619 9.14158 14.8451 9.05784 15.0781 9.0625C15.3088 9.05746 15.5326 9.14139 15.7031 9.29688C16.0086 9.55483 16.3971 9.69358 16.7969 9.6875C16.9005 9.6875 16.9998 9.64635 17.0731 9.57309C17.1463 9.49983 17.1875 9.40048 17.1875 9.29688C17.1875 9.19328 17.1463 9.09392 17.0731 9.02066C16.9998 8.94741 16.9005 8.90625 16.7969 8.90625Z" fill="#577590"/>
<path d="M16.7969 12.8125C16.5642 12.8156 16.3386 12.7321 16.1641 12.5781C15.8606 12.3219 15.4752 12.1833 15.0781 12.1875C14.6787 12.1835 14.2909 12.322 13.9844 12.5781C13.8097 12.7293 13.5865 12.8125 13.3555 12.8125C13.1245 12.8125 12.9012 12.7293 12.7266 12.5781C12.4231 12.3219 12.0377 12.1833 11.6406 12.1875C11.2412 12.1835 10.8534 12.322 10.5469 12.5781C10.3755 12.7322 10.1523 12.816 9.92187 12.8125C9.68916 12.8156 9.4636 12.7321 9.28906 12.5781C8.98562 12.3219 8.60023 12.1833 8.20312 12.1875C8.09952 12.1875 8.00017 12.2287 7.92691 12.3019C7.85365 12.3752 7.8125 12.4745 7.8125 12.5781C7.8125 12.6817 7.85365 12.7811 7.92691 12.8543C8.00017 12.9276 8.09952 12.9688 8.20312 12.9688C8.43383 12.9637 8.65762 13.0476 8.82813 13.2031C9.13361 13.4611 9.52209 13.5998 9.92187 13.5938C10.3196 13.6015 10.7062 13.4625 11.0078 13.2031C11.1825 13.0519 11.4057 12.9687 11.6367 12.9687C11.8677 12.9687 12.091 13.0519 12.2656 13.2031C12.5729 13.4551 12.9581 13.5928 13.3555 13.5928C13.7529 13.5928 14.138 13.4551 14.4453 13.2031C14.619 13.0478 14.8451 12.9641 15.0781 12.9688C15.3088 12.9637 15.5326 13.0476 15.7031 13.2031C16.0086 13.4611 16.3971 13.5998 16.7969 13.5938C16.9005 13.5938 16.9998 13.5526 17.0731 13.4793C17.1463 13.4061 17.1875 13.3067 17.1875 13.2031C17.1875 13.0995 17.1463 13.0002 17.0731 12.9269C16.9998 12.8537 16.9005 12.8125 16.7969 12.8125Z" fill="#577590"/>
<path d="M16.7969 16.7188C16.5642 16.7219 16.3386 16.6383 16.1641 16.4844C15.8606 16.2282 15.4752 16.0896 15.0781 16.0938C14.6787 16.0898 14.2909 16.2283 13.9844 16.4844C13.8097 16.6356 13.5865 16.7188 13.3555 16.7188C13.1245 16.7188 12.9012 16.6356 12.7266 16.4844C12.4231 16.2282 12.0377 16.0896 11.6406 16.0938C11.2412 16.0898 10.8534 16.2283 10.5469 16.4844C10.3755 16.6385 10.1523 16.7222 9.92187 16.7188C9.68916 16.7219 9.4636 16.6383 9.28906 16.4844C8.98562 16.2282 8.60023 16.0896 8.20312 16.0938C8.09952 16.0938 8.00017 16.1349 7.92691 16.2082C7.85365 16.2814 7.8125 16.3808 7.8125 16.4844C7.8125 16.588 7.85365 16.6873 7.92691 16.7606C8.00017 16.8338 8.09952 16.875 8.20312 16.875C8.43383 16.87 8.65762 16.9539 8.82813 17.1094C9.13361 17.3673 9.52209 17.5061 9.92187 17.5C10.3196 17.5078 10.7062 17.3687 11.0078 17.1094C11.1825 16.9582 11.4057 16.875 11.6367 16.875C11.8677 16.875 12.091 16.9582 12.2656 17.1094C12.5729 17.3614 12.9581 17.4991 13.3555 17.4991C13.7529 17.4991 14.138 17.3614 14.4453 17.1094C14.619 16.9541 14.8451 16.8703 15.0781 16.875C15.3088 16.87 15.5326 16.9539 15.7031 17.1094C16.0086 17.3673 16.3971 17.5061 16.7969 17.5C16.9005 17.5 16.9998 17.4588 17.0731 17.3856C17.1463 17.3123 17.1875 17.213 17.1875 17.1094C17.1875 17.0058 17.1463 16.9064 17.0731 16.8332C16.9998 16.7599 16.9005 16.7188 16.7969 16.7188Z" fill="#577590"/>
<defs>
<linearGradient id="paint0_linear_62_715" x1="7.66409" y1="7.66406" x2="21.8828" y2="21.8828" gradientUnits="userSpaceOnUse">
<stop stop-color="#F9DCC4"/>
<stop offset="0.32" stop-color="#F8D9C0"/>
<stop offset="0.64" stop-color="#F4CFB3"/>
<stop offset="0.98" stop-color="#EEBF9F"/>
<stop offset="1" stop-color="#EDBE9D"/>
</linearGradient>
<linearGradient id="paint1_linear_62_715" x1="4.68749" y1="3.90624" x2="9.37499" y2="3.90624" gradientUnits="userSpaceOnUse">
<stop stop-color="#F9DCC4"/>
<stop offset="1" stop-color="#EDBE9D"/>
</linearGradient>
</defs>
</svg>
