<?xml version="1.0" encoding="iso-8859-1"?>
<!-- Generator: Adobe Illustrator 18.0.0, SVG Export Plug-In . SVG Version: 6.00 Build 0)  -->
<!DOCTYPE svg PUBLIC "-//W3C//DTD SVG 1.1//EN" "http://www.w3.org/Graphics/SVG/1.1/DTD/svg11.dtd">
<svg version="1.1" id="Capa_1" xmlns="http://www.w3.org/2000/svg" xmlns:xlink="http://www.w3.org/1999/xlink" x="0px" y="0px"
	 viewBox="0 0 392.543 392.543" style="enable-background:new 0 0 392.543 392.543;" xml:space="preserve">
<g>
	<path style="fill:#FFE473;" d="M65.939,388.705l63.025-76.154l-34.648-34.648l-76.154,63.025c-4.809,3.98-5.15,11.235-0.736,15.649
		l32.865,32.865C54.704,393.855,61.959,393.514,65.939,388.705z"/>
	<polygon style="fill:#26A3BF;" points="333.044,8.485 336.218,25.801 196.211,165.808 215.495,185.092 371.058,29.529 
		351.774,10.245 341.53,0 	"/>
	<path style="fill:#808080;" d="M233.13,284.752L198.482,319.4c-2.343,2.343-6.142,2.343-8.485,0l-26.87-26.87
		c-2.343-2.343-2.343-6.142,0-8.485l34.648-34.648c2.343-2.343,6.142-2.343,8.485,0l26.87,26.87
		C235.473,278.61,235.473,282.409,233.13,284.752z M194.239,306.672l26.163-26.163l-18.385-18.385l-26.163,26.163L194.239,306.672z"
		/>
	
		<rect x="87.353" y="145.807" transform="matrix(0.7071 -0.7071 0.7071 0.7071 -51.9467 202.4064)" style="fill:#808080;" width="262" height="36.203"/>
	<path style="fill:#26A3BF;" d="M229.47,357.709l-22.015,22.015c-3.211,3.211-8.539,2.757-11.161-0.95l-56.501-79.88l32.527-32.527
		l57.951,81.931C232.331,351.212,231.993,355.186,229.47,357.709z"/>
	<path style="fill:#FFE473;" d="M357.036,210.608c7.062,16.738,14.122,33.476,21.184,50.215
		c-75.053,31.662-161.562-3.513-193.225-78.566c16.738-7.061,33.476-14.123,50.215-21.184
		C255.173,208.394,309.716,230.571,357.036,210.608z"/>
	<path style="fill:#F98680;" d="M274.717,195.082L151.73,318.069c-6.593,6.593-17.283,6.593-23.876,0L92.73,282.944
		c-5.25-5.25-5.25-13.762,0-19.012l135.451-135.451l46.536,46.536C280.258,180.558,280.258,189.541,274.717,195.082z"/>
	<g>
		
			<rect x="179.13" y="176.016" transform="matrix(0.7071 -0.7071 0.7071 0.7071 -65.9866 202.2382)" style="fill:#E57370;" width="64" height="9.513"/>
		
			<rect x="190.472" y="187.358" transform="matrix(0.7071 -0.7071 0.7071 0.7071 -70.6848 213.5808)" style="fill:#E57370;" width="64" height="9.513"/>
		
			<rect x="201.815" y="198.701" transform="matrix(0.7071 -0.7071 0.7071 0.7071 -75.383 224.9234)" style="fill:#E57370;" width="64" height="9.513"/>
	</g>
	<path style="fill:#1E94A8;" d="M112.767,220.082l-27.454,27.454c-2.48,2.48-2.48,6.5,0,8.98l7.416,7.416l36.434-36.434
		l-7.416-7.416C119.267,217.603,115.247,217.603,112.767,220.082z"/>
	<path style="fill:#FFE473;" d="M311.711,96.091l-57.96,57.96l16.149,16.149l49.466-49.466c4.691-4.691,4.691-12.297,0-16.989
		L311.711,96.091z"/>
	<path style="fill:#F98680;" d="M104.472,170.114c-39.701,0-72-32.299-72-72s32.299-72,72-72s72,32.299,72,72
		S144.173,170.114,104.472,170.114z M104.472,44.114c-29.776,0-54,24.224-54,54s24.224,54,54,54s54-24.224,54-54
		S134.248,44.114,104.472,44.114z"/>
	<rect x="95.472" y="131.985" style="fill:#26A3BF;" width="18" height="53.63"/>
	<rect x="95.472" y="10.614" style="fill:#26A3BF;" width="18" height="53.63"/>
	<rect x="16.972" y="89.114" style="fill:#26A3BF;" width="53.63" height="18"/>
	<rect x="138.343" y="89.114" style="fill:#26A3BF;" width="53.63" height="18"/>
</g>
<g>
</g>
<g>
</g>
<g>
</g>
<g>
</g>
<g>
</g>
<g>
</g>
<g>
</g>
<g>
</g>
<g>
</g>
<g>
</g>
<g>
</g>
<g>
</g>
<g>
</g>
<g>
</g>
<g>
</g>
</svg>
