<svg width="50" height="44" viewBox="0 0 50 44" fill="none" xmlns="http://www.w3.org/2000/svg">
<path d="M39.0576 38.5268C39.0576 41.2071 32.8486 43.3667 25.1934 43.3667C17.5381 43.3667 11.3291 41.1878 11.3291 38.5268C11.3291 35.8465 17.5381 33.6868 25.1934 33.6868C32.8486 33.6868 39.0576 35.8465 39.0576 38.5268Z" fill="#9EDCF2"/>
<path d="M39.0576 38.5268C39.0576 41.2071 32.8486 43.3667 25.1934 43.3667C17.5381 43.3667 11.3291 41.1878 11.3291 38.5268C11.3291 35.8465 17.5381 33.6868 25.1934 33.6868C32.8486 33.6868 39.0576 35.8465 39.0576 38.5268Z" fill="#7DBCE7"/>
<path d="M9.36152 24.2769L8.95658 25.6653C8.95658 25.6653 8.86017 26.1666 9.32295 26.263C9.8243 26.2437 9.78574 25.781 9.74717 25.646L9.36152 24.2769Z" fill="#9EDCF2"/>
<path d="M49.6435 18.4342L49.682 18.2607C45.6134 17.4508 41.4483 17.4315 38.9223 17.5472C39.3272 16.0625 39.4622 14.327 39.4622 12.4181C39.4622 9.66063 38.4209 7.4624 36.7626 5.80409C37.0519 4.85924 37.4375 2.75743 36.377 0.0771341C36.377 0.0771341 34.4873 -0.520629 30.1872 2.35249C28.5096 1.92827 26.7164 1.71616 24.9231 1.71616C22.9562 1.71616 20.9701 1.96684 19.0997 2.46819C14.6647 -0.559194 12.7171 0.0578514 12.7171 0.0578514C11.4445 3.23949 12.2351 5.61126 12.4665 6.18974C10.9624 7.80949 10.0561 9.87274 10.0561 12.3988C10.0561 14.3078 10.2682 16.0239 10.8081 17.5087C8.26283 17.4123 4.25203 17.4508 0.318359 18.2414L0.356925 18.415C4.29059 17.6244 8.33996 17.6051 10.866 17.7015C10.9817 18.01 11.1167 18.3186 11.2516 18.6078C8.74489 18.6849 4.48342 19.0127 0.39549 20.1697L0.453338 20.3432C4.57983 19.1863 8.87987 18.8778 11.3673 18.8006C12.8714 21.5773 15.8024 23.3899 21.0472 23.9491C20.2952 24.4504 19.5432 25.2989 19.2347 26.7451C18.2127 27.2272 15.0118 28.4227 13.0835 25.1061C13.0835 25.1061 12.0037 23.1392 9.94042 22.985C9.94042 22.985 7.93502 22.9464 9.80544 24.2383C9.80544 24.2383 11.1359 24.8747 12.0615 27.2464C12.0615 27.2464 13.2763 31.2958 19.0804 29.9846V34.1304C19.0804 34.1304 18.9647 35.6151 17.5956 36.0972C17.5956 36.0972 16.7858 36.6564 17.6535 36.9649C17.6535 36.9649 21.4136 37.2734 21.4136 34.1882V29.6375C21.4136 29.6375 21.2594 27.8249 22.1464 27.2079V34.6896C22.1464 34.6896 22.0885 36.4828 21.1629 37.1577C21.1629 37.1577 20.5459 38.2568 21.8957 37.9676C21.8957 37.9676 24.4796 37.6012 24.5953 34.5739L24.6531 26.9958H25.2702L25.328 34.5739C25.4437 37.582 28.0276 37.9676 28.0276 37.9676C29.3774 38.2761 28.7603 37.1577 28.7603 37.1577C27.8348 36.4828 27.7769 34.6896 27.7769 34.6896V27.2657C28.6639 27.9599 28.5096 29.6375 28.5096 29.6375V34.1882C28.5096 37.2734 32.2698 36.9649 32.2698 36.9649C33.1375 36.6564 32.3276 36.0972 32.3276 36.0972C30.9778 35.5958 30.8428 34.1304 30.8428 34.1304V28.1527C30.8428 25.8195 29.8594 24.5854 28.8953 23.9491C34.4873 23.3899 37.1676 21.5966 38.4017 18.7813C40.8506 18.8392 45.2663 19.1477 49.4699 20.3432L49.5278 20.1697C45.3434 18.9934 40.9663 18.6849 38.4788 18.6078C38.5945 18.3186 38.6909 18.0293 38.7873 17.7208C41.3712 17.6244 45.5555 17.6244 49.6435 18.4342Z" fill="#010101"/>
<path d="M33.9863 12.283C35.1819 13.3822 35.8953 14.6934 35.8953 16.101C35.8953 22.7343 30.959 22.9078 24.8656 22.9078C18.7723 22.9078 13.8359 21.9822 13.8359 16.101C13.8359 14.6934 14.5301 13.3822 15.7256 12.3023C17.7118 10.4898 21.0669 11.4539 24.8656 11.4539C28.6643 11.4539 32.0002 10.4705 33.9863 12.283Z" fill="#F5CCB3"/>
<path d="M21.2016 16.4482C21.2016 18.28 20.1796 19.7455 18.9069 19.7455C17.6343 19.7455 16.6123 18.2607 16.6123 16.4482C16.6123 14.6163 17.6343 13.1508 18.9069 13.1508C20.1796 13.1315 21.2016 14.6163 21.2016 16.4482Z" fill="white"/>
<path d="M20.4685 16.4867C20.4685 17.7015 19.7744 18.6849 18.9452 18.6849C18.0968 18.6849 17.4219 17.7015 17.4219 16.4867C17.4219 15.2719 18.1161 14.2885 18.9452 14.2885C19.7744 14.2885 20.4685 15.2719 20.4685 16.4867Z" fill="#AF5C51"/>
<path d="M33.5229 16.4482C33.5229 18.28 32.5009 19.7455 31.2282 19.7455C29.9556 19.7455 28.9336 18.2607 28.9336 16.4482C28.9336 14.6163 29.9556 13.1508 31.2282 13.1508C32.4816 13.1315 33.5229 14.6163 33.5229 16.4482Z" fill="white"/>
<path d="M32.7713 16.4867C32.7713 17.7015 32.0771 18.6849 31.2479 18.6849C30.3995 18.6849 29.7246 17.7015 29.7246 16.4867C29.7246 15.2719 30.4188 14.2885 31.2479 14.2885C32.0964 14.2885 32.7713 15.2719 32.7713 16.4867Z" fill="#AF5C51"/>
<path d="M25.4822 19.3791C25.4822 19.6876 25.2315 19.9576 24.9037 19.9576C24.5952 19.9576 24.3252 19.7069 24.3252 19.3791C24.3252 19.0513 24.5759 18.8006 24.9037 18.8006C25.2122 18.8006 25.4822 19.0513 25.4822 19.3791Z" fill="#AF5C51"/>
<path d="M23.5736 20.8253C23.535 20.7289 23.5929 20.6325 23.6893 20.5939C23.7857 20.5554 23.8821 20.6132 23.9207 20.7096C24.075 21.1338 24.4606 21.4038 24.9041 21.4038C25.3476 21.4038 25.7333 21.1146 25.8875 20.7096C25.9261 20.6132 26.0225 20.5554 26.1189 20.5939C26.2153 20.6325 26.2732 20.7289 26.2346 20.8253C26.0418 21.3845 25.5019 21.7702 24.9041 21.7702C24.3063 21.7702 23.7664 21.3845 23.5736 20.8253Z" fill="#AF5C51"/>
<path d="M10.8275 23.4478C10.8275 23.602 10.6539 23.7177 10.4225 23.7177C10.2104 23.7177 10.0176 23.602 10.0176 23.4478C10.0176 23.2935 10.1911 23.1778 10.4225 23.1778C10.6539 23.1778 10.8275 23.2935 10.8275 23.4478Z" fill="#C4E5D9"/>
<path d="M11.9456 24.0648C11.9456 24.2191 11.7721 24.3348 11.5407 24.3348C11.3286 24.3348 11.1357 24.2191 11.1357 24.0648C11.1357 23.9106 11.3093 23.7949 11.5407 23.7949C11.7721 23.7949 11.9456 23.9106 11.9456 24.0648Z" fill="#C4E5D9"/>
<path d="M12.6204 24.8746C12.6204 25.0289 12.4469 25.1446 12.2155 25.1446C12.0034 25.1446 11.8105 25.0289 11.8105 24.8746C11.8105 24.7204 11.9841 24.6047 12.2155 24.6047C12.4469 24.5854 12.6204 24.7204 12.6204 24.8746Z" fill="#C4E5D9"/>
<path d="M13.2376 25.8002C13.2376 25.9545 13.0641 26.0702 12.8327 26.0702C12.6206 26.0702 12.4277 25.9545 12.4277 25.8002C12.4277 25.646 12.6013 25.5303 12.8327 25.5303C13.0641 25.511 13.2376 25.646 13.2376 25.8002Z" fill="#C4E5D9"/>
<path d="M13.9124 26.6487C13.9124 26.8029 13.7389 26.9186 13.5075 26.9186C13.2954 26.9186 13.1025 26.8029 13.1025 26.6487C13.1025 26.4944 13.2761 26.3787 13.5075 26.3787C13.7389 26.3787 13.9124 26.4944 13.9124 26.6487Z" fill="#C4E5D9"/>
<path d="M14.8382 27.4007C14.8382 27.555 14.6646 27.6707 14.4333 27.6707C14.2211 27.6707 14.0283 27.555 14.0283 27.4007C14.0283 27.2464 14.2019 27.1307 14.4333 27.1307C14.6646 27.1115 14.8382 27.2464 14.8382 27.4007Z" fill="#C4E5D9"/>
<path d="M16.1302 27.8828C16.1302 28.037 15.9566 28.1527 15.7252 28.1527C15.5131 28.1527 15.3203 28.037 15.3203 27.8828C15.3203 27.7285 15.4939 27.6128 15.7252 27.6128C15.9566 27.6128 16.1302 27.7285 16.1302 27.8828Z" fill="#C4E5D9"/>
<path d="M17.4222 27.8828C17.4222 28.037 17.2486 28.1527 17.0172 28.1527C16.8051 28.1527 16.6123 28.037 16.6123 27.8828C16.6123 27.7285 16.7858 27.6128 17.0172 27.6128C17.2486 27.6128 17.4222 27.7285 17.4222 27.8828Z" fill="#C4E5D9"/>
<path d="M18.7337 27.6707C18.7337 27.8249 18.5602 27.9406 18.3288 27.9406C18.1167 27.9406 17.9238 27.8249 17.9238 27.6707C17.9238 27.5164 18.0974 27.4007 18.3288 27.4007C18.5409 27.4007 18.7337 27.5164 18.7337 27.6707Z" fill="#C4E5D9"/>
</svg>
