<svg width="25" height="25" viewBox="0 0 25 25" fill="none" xmlns="http://www.w3.org/2000/svg">
<g clip-path="url(#clip0_88_30)">
<path d="M12.5 25C19.4036 25 25 19.4036 25 12.5C25 5.59644 19.4036 0 12.5 0C5.59644 0 0 5.59644 0 12.5C0 19.4036 5.59644 25 12.5 25Z" fill="#F7CFA2"/>
<path d="M6.41036 2.79645C5.64658 2.79645 5.01416 3.41241 5.01416 4.19265V20.8196C5.01416 21.5834 5.63013 22.2158 6.41036 22.2158C7.17414 22.2158 7.80656 21.5999 7.80656 20.8196V4.19678C7.80656 3.42887 7.17414 2.79645 6.41036 2.79645Z" fill="#646B79"/>
<path d="M12.5002 2.79645C11.7364 2.79645 11.104 3.41241 11.104 4.19265V20.8196C11.104 21.5834 11.72 22.2158 12.5002 22.2158C13.264 22.2158 13.8964 21.5999 13.8964 20.8196V4.19678C13.8964 3.42887 13.264 2.79645 12.5002 2.79645Z" fill="#646B79"/>
<path d="M18.59 2.79645C17.8263 2.79645 17.1938 3.41241 17.1938 4.19265V20.8196C17.1938 21.5834 17.8098 22.2158 18.59 22.2158C19.3538 22.2158 19.9863 21.5999 19.9863 20.8196V4.19678C19.9903 3.42887 19.3579 2.79645 18.59 2.79645Z" fill="#646B79"/>
<path d="M5.00977 17.2758V20.8032C5.00977 21.567 5.62573 22.1994 6.40597 22.1994C7.16975 22.1994 7.80217 21.5835 7.80217 20.8032V17.2758H5.00977Z" fill="#333842"/>
<path d="M11.1035 12.1674V20.8237C11.1035 21.5875 11.7195 22.2199 12.4997 22.2199C13.2635 22.2199 13.8959 21.604 13.8959 20.8237V12.1674H11.1035Z" fill="#333842"/>
<path d="M17.1934 8.82068V20.8032C17.1934 21.567 17.8093 22.1994 18.5896 22.1994C19.3533 22.1994 19.9858 21.5835 19.9858 20.8032V8.82068H17.1934Z" fill="#333842"/>
<path d="M8.22094 16.3271H4.59088C4.00776 16.3271 3.52734 16.8117 3.52734 17.3907V18.3229C3.52734 18.906 4.01189 19.3864 4.59088 19.3864H8.23739C8.82052 19.3864 9.30093 18.9019 9.30093 18.3229V17.3907C9.28861 16.8118 8.82052 16.3271 8.22094 16.3271Z" fill="#F0582F"/>
<path d="M14.3148 11.2352H10.6846C10.1015 11.2352 9.62109 11.7198 9.62109 12.2988V13.2309C9.62109 13.8141 10.1056 14.2945 10.6846 14.2945H14.3311C14.9143 14.2945 15.3947 13.8099 15.3947 13.2309V12.2988C15.3947 11.7198 14.9143 11.2352 14.3148 11.2352Z" fill="#F0582F"/>
<path d="M20.4049 7.42444H16.7584C16.1752 7.42444 15.6948 7.90898 15.6948 8.48798V9.42015C15.6948 10.0033 16.1794 10.4837 16.7584 10.4837H20.4049C20.988 10.4837 21.4684 9.99915 21.4684 9.42015V8.48798C21.489 7.90485 21.0045 7.42444 20.4049 7.42444Z" fill="#F0582F"/>
</g>
<defs>
<clipPath id="clip0_88_30">
<rect width="25" height="25" fill="white"/>
</clipPath>
</defs>
</svg>
