<svg width="25" height="25" viewBox="0 0 25 25" fill="none" xmlns="http://www.w3.org/2000/svg">
<g clip-path="url(#clip0_62_660)">
<path d="M12.5 25C19.4036 25 25 19.4036 25 12.5C25 5.59644 19.4036 0 12.5 0C5.59644 0 0 5.59644 0 12.5C0 19.4036 5.59644 25 12.5 25Z" fill="#F7CFA2"/>
<path d="M6.41012 2.79648C5.64634 2.79648 5.01392 3.41245 5.01392 4.19268V20.8197C5.01392 21.5834 5.62988 22.2159 6.41012 22.2159C7.1739 22.2159 7.80632 21.5999 7.80632 20.8197V4.19681C7.80632 3.4289 7.1739 2.79648 6.41012 2.79648Z" fill="#646B79"/>
<path d="M12.5 2.79648C11.7362 2.79648 11.1038 3.41245 11.1038 4.19268V20.8197C11.1038 21.5834 11.7197 22.2159 12.5 22.2159C13.2637 22.2159 13.8962 21.5999 13.8962 20.8197V4.19681C13.8962 3.4289 13.2637 2.79648 12.5 2.79648Z" fill="#646B79"/>
<path d="M18.5898 2.79648C17.826 2.79648 17.1936 3.41245 17.1936 4.19268V20.8197C17.1936 21.5834 17.8096 22.2159 18.5898 22.2159C19.3536 22.2159 19.986 21.5999 19.986 20.8197V4.19681C19.9901 3.4289 19.3577 2.79648 18.5898 2.79648Z" fill="#646B79"/>
<path d="M5.00989 17.2758V20.8032C5.00989 21.567 5.62585 22.1994 6.40609 22.1994C7.16987 22.1994 7.80229 21.5834 7.80229 20.8032V17.2758H5.00989Z" fill="#333842"/>
<path d="M11.1038 12.1673V20.8237C11.1038 21.5875 11.7197 22.2199 12.5 22.2199C13.2637 22.2199 13.8962 21.6039 13.8962 20.8237V12.1673H11.1038Z" fill="#333842"/>
<path d="M17.1937 8.82065V20.8032C17.1937 21.567 17.8097 22.1994 18.5899 22.1994C19.3537 22.1994 19.9861 21.5834 19.9861 20.8032V8.82065H17.1937Z" fill="#333842"/>
<path d="M8.22106 16.3271H4.591C4.00788 16.3271 3.52747 16.8117 3.52747 17.3907V18.3229C3.52747 18.906 4.01201 19.3864 4.591 19.3864H8.23752C8.82064 19.3864 9.30105 18.9019 9.30105 18.3229V17.3907C9.28873 16.8118 8.82064 16.3271 8.22106 16.3271Z" fill="#F0582F"/>
<path d="M14.315 11.2352H10.6849C10.1018 11.2352 9.62134 11.7198 9.62134 12.2988V13.2309C9.62134 13.8141 10.1059 14.2945 10.6849 14.2945H14.3314C14.9145 14.2945 15.3949 13.8099 15.3949 13.2309V12.2988C15.395 11.7198 14.9145 11.2352 14.315 11.2352Z" fill="#F0582F"/>
<path d="M20.4049 7.42444H16.7584C16.1752 7.42444 15.6948 7.90898 15.6948 8.48798V9.42015C15.6948 10.0033 16.1794 10.4837 16.7584 10.4837H20.4049C20.988 10.4837 21.4684 9.99915 21.4684 9.42015V8.48798C21.489 7.90485 21.0045 7.42444 20.4049 7.42444Z" fill="#F0582F"/>
</g>
<defs>
<clipPath id="clip0_62_660">
<rect width="25" height="25" fill="white"/>
</clipPath>
</defs>
</svg>
