<svg version="1.2" baseProfile="tiny-ps" xmlns="http://www.w3.org/2000/svg" viewBox="0 0 538 74" width="538" height="74">
	<title>Need For Speed Logotype</title>
	<defs>
		<clipPath clipPathUnits="userSpaceOnUse" id="cp1">
			<path d="M4 16L533.12 16L533.12 58L4 58L4 16Z" />
		</clipPath>
	</defs>
	<style>
		tspan { white-space:pre }
		.shp0 { fill: #ffffff } 
	</style>
	<g id="nfs-510-logo-white">
		<g id="Group-3">
			<g id="Clip-2">
			</g>
			<g id="Clip-Path: Fill-1" clip-path="url(#cp1)">
				<path id="Fill-1" fill-rule="evenodd" class="shp0" d="M447.62 16L492.24 16L479.12 26.5L455.49 26.5L452.87 31.75L473.87 31.75L460.74 42.25L447.62 42.25L444.99 47.5L473.87 47.5L468.62 58L426.62 58L447.62 16ZM400.37 16L444.99 16L431.87 26.5L408.24 26.5L405.62 31.75L426.62 31.75L413.49 42.25L400.37 42.25L397.74 47.5L426.62 47.5L421.37 58L379.37 58L400.37 16ZM119.5 16L164.12 16L151 26.5L127.37 26.5L124.75 31.75L145.75 31.75L132.62 42.25L119.5 42.25L116.87 47.5L145.75 47.5L140.5 58L98.5 58L119.5 16ZM494.87 16L526.24 16C531.12 16 534.3 21.14 532.11 25.5L519.49 50.75C517.27 55.19 512.72 58 507.75 58L473.87 58L494.87 16ZM524.91 52.77L522.29 58L521.12 58L523.73 52.77L522.49 52.77L522.92 51.9L526.6 51.9L526.17 52.77L524.91 52.77ZM286.37 31.75C289.3 31.75 291.2 34.83 289.89 37.45L284.87 47.5L279.62 47.5L279.62 58L269.12 58L269.12 47.5L263.87 58L253.37 58L266.5 31.75L286.37 31.75ZM279.62 37L274.37 37L270.43 44.88L275.68 44.88L279.62 37ZM223.18 42.25L216.62 47.5L211.37 47.5L206.12 58L195.62 58L208.75 31.75L233.68 31.75L227.12 37L216.62 37L213.99 42.25L223.18 42.25ZM228.24 58C225.32 58 223.41 54.92 224.72 52.3L232.82 36.1C234.15 33.44 236.88 31.75 239.86 31.75L254.88 31.75C257.8 31.75 259.71 34.83 258.4 37.45L250.3 53.65C248.96 56.31 246.24 58 243.25 58L228.24 58ZM235 52.75L240.25 52.75L248.12 37L242.87 37L235 52.75ZM330.5 50.74C328.27 55.19 323.73 58 318.76 58L282.25 58L295.37 47.5L318.99 47.5L321.62 42.25L303.36 42.25C298.48 42.25 295.31 37.12 297.49 32.75L302.24 23.26C304.47 18.81 309.01 16 313.98 16L350.49 16L337.37 26.5L313.74 26.5L311.12 31.75L329.38 31.75C334.25 31.75 337.43 36.88 335.25 41.25L330.5 50.74ZM72.25 16L116.87 16L103.75 26.5L80.12 26.5L77.5 31.75L98.5 31.75L85.37 42.25L72.25 42.25L69.62 47.5L98.5 47.5L93.25 58L51.25 58L72.25 16ZM383 40.24C380.77 44.69 376.23 47.5 371.26 47.5L350.49 47.5L345.24 58L332.12 58L353.12 16L384.5 16C389.38 16 392.55 21.14 390.37 25.5L383 40.24ZM376.74 26.5L360.99 26.5L355.74 37L371.49 37L376.74 26.5ZM30.25 31.75L17.12 58L4 58L25 16L38.12 16L40.75 42.25L53.87 16L67 16L46 58L32.87 58L30.25 31.75ZM492.24 47.5L507.99 47.5L518.49 26.5L502.74 26.5L492.24 47.5ZM528.9 58L530.8 54.2L528.53 56.7L527.88 56.7L528.11 54.24L526.23 58L525.06 58L528.1 51.9L529.16 51.9L529.01 55.11L532.05 51.9L533.12 51.9L530.07 58L528.9 58ZM166.75 16L198.13 16C203.01 16 206.18 21.13 204 25.5L191.37 50.74C189.15 55.19 184.61 58 179.63 58L145.75 58L166.75 16ZM164.12 47.5L179.87 47.5L190.37 26.5L174.62 26.5L164.12 47.5Z" />
			</g>
		</g>
	</g>
</svg>