<?xml version="1.0" encoding="iso-8859-1"?>
<!-- Generator: Adobe Illustrator 19.0.0, SVG Export Plug-In . SVG Version: 6.00 Build 0)  -->
<svg version="1.1" id="Layer_1" xmlns="http://www.w3.org/2000/svg" xmlns:xlink="http://www.w3.org/1999/xlink" x="0px" y="0px"
	 viewBox="0 0 505 505" style="enable-background:new 0 0 505 505;" xml:space="preserve">
<circle style="fill:#FD8469;" cx="252.5" cy="252.5" r="252.5"/>
<polygon style="fill:#FFFFFF;" points="113.9,391.1 113.9,355.3 127,355.3 127,341.7 113.9,341.7 113.9,312.5 127,312.5 127,298.8 
	113.9,298.8 113.9,269.6 127,269.6 127,255.9 113.9,255.9 113.9,226.7 127,226.7 127,213 113.9,213 113.9,183.8 127,183.8 
	127,170.2 113.9,170.2 113.9,140.9 127,140.9 127,127.3 113.9,127.3 113.9,97.1 97.1,97.1 97.1,407.9 407.9,407.9 407.9,391.1 "/>
<rect x="187.5" y="132.3" style="fill:#324A5E;" width="13.8" height="195.1"/>
<path style="fill:#4CDBC4;" d="M168.5,288.4h51.8c0.6,0,1.1-0.5,1.1-1.1V172.4c0-0.6-0.5-1.1-1.1-1.1h-51.8c-0.6,0-1.1,0.5-1.1,1.1
	v114.9C167.4,287.9,167.8,288.4,168.5,288.4z"/>
<rect x="284.9" y="169.9" style="fill:#324A5E;" width="13.8" height="195.1"/>
<path style="fill:#FFD05B;" d="M265.9,326h51.8c0.6,0,1.1-0.5,1.1-1.1V210c0-0.6-0.5-1.1-1.1-1.1h-51.8c-0.6,0-1.1,0.5-1.1,1.1
	v114.9C264.8,325.5,265.3,326,265.9,326z"/>
<rect x="370" y="117.3" style="fill:#324A5E;" width="13.8" height="195.1"/>
<path style="fill:#E6E9EE;" d="M351,273.4h51.8c0.6,0,1.1-0.5,1.1-1.1V157.4c0-0.6-0.5-1.1-1.1-1.1H351c-0.6,0-1.1,0.5-1.1,1.1
	v114.9C349.9,272.9,350.4,273.4,351,273.4z"/>
<g>
</g>
<g>
</g>
<g>
</g>
<g>
</g>
<g>
</g>
<g>
</g>
<g>
</g>
<g>
</g>
<g>
</g>
<g>
</g>
<g>
</g>
<g>
</g>
<g>
</g>
<g>
</g>
<g>
</g>
</svg>
