<svg width="25" height="25" viewBox="0 0 25 25" fill="none" xmlns="http://www.w3.org/2000/svg">
<g clip-path="url(#clip0_62_812)">
<path d="M4.19935 24.7556L8.21325 19.9055L6.00661 17.6989L1.15657 21.7128C0.850295 21.9662 0.828578 22.4283 1.10969 22.7094L3.20278 24.8025C3.48383 25.0836 3.94588 25.0618 4.19935 24.7556Z" fill="#FFE473"/>
<path d="M21.2106 0.540387L21.4128 1.6432L12.4961 10.5599L13.7242 11.788L23.6316 1.88062L22.4035 0.652476L21.7511 0L21.2106 0.540387Z" fill="#26A3BF"/>
<path d="M14.8473 18.1351L12.6407 20.3417C12.4915 20.4909 12.2495 20.4909 12.1003 20.3417L10.389 18.6305C10.2398 18.4812 10.2398 18.2393 10.389 18.0901L12.5957 15.8834C12.7449 15.7342 12.9868 15.7342 13.136 15.8834L14.8473 17.5947C14.9965 17.7439 14.9965 17.9859 14.8473 18.1351ZM12.3705 19.5311L14.0367 17.8649L12.8658 16.694L11.1996 18.3602L12.3705 19.5311Z" fill="#808080"/>
<path d="M18.9901 3.72438L7.19141 15.5231L8.82175 17.1534L20.6205 5.35472L18.9901 3.72438Z" fill="#808080"/>
<path d="M14.6141 22.7815L13.212 24.1836C13.0075 24.3881 12.6682 24.3592 12.5012 24.1231L8.90283 19.0358L10.9744 16.9642L14.6651 22.1822C14.7963 22.3678 14.7748 22.6208 14.6141 22.7815Z" fill="#26A3BF"/>
<path d="M22.7386 13.4131C23.1883 14.479 23.638 15.545 24.0877 16.6111C19.3078 18.6276 13.7983 16.3874 11.7817 11.6075C12.8477 11.1578 13.9137 10.708 14.9798 10.2583C16.2512 13.272 19.7249 14.6844 22.7386 13.4131Z" fill="#FFE473"/>
<path d="M17.4958 12.4243L9.6631 20.257C9.24321 20.6769 8.5624 20.6769 8.14251 20.257L5.90555 18.0199C5.5712 17.6856 5.5712 17.1435 5.90555 16.8091L14.5321 8.18262L17.4958 11.1464C17.8487 11.4993 17.8487 12.0714 17.4958 12.4243Z" fill="#F98680"/>
<path d="M14.6729 9.85765L11.7908 12.7398L12.2192 13.1682L15.1013 10.286L14.6729 9.85765Z" fill="#E57370"/>
<path d="M15.3953 10.58L12.5132 13.4622L12.9416 13.8906L15.8237 11.0084L15.3953 10.58Z" fill="#E57370"/>
<path d="M16.1177 11.3024L13.2356 14.1845L13.664 14.6129L16.5461 11.7308L16.1177 11.3024Z" fill="#E57370"/>
<path d="M7.18163 14.0164L5.43316 15.7649C5.27521 15.9228 5.27521 16.1789 5.43316 16.3368L5.90546 16.8091L8.22584 14.4887L7.75354 14.0164C7.59559 13.8585 7.33957 13.8585 7.18163 14.0164Z" fill="#1E94A8"/>
<path d="M19.852 6.11978L16.1606 9.8111L17.1891 10.8396L20.3395 7.68923C20.6382 7.39047 20.6382 6.90606 20.3395 6.60724L19.852 6.11978Z" fill="#FFE473"/>
<path d="M6.65336 10.8341C4.12491 10.8341 2.06787 8.77705 2.06787 6.2486C2.06787 3.72015 4.12491 1.66312 6.65336 1.66312C9.18181 1.66312 11.2388 3.72015 11.2388 6.2486C11.2388 8.77705 9.18181 10.8341 6.65336 10.8341ZM6.65336 2.80949C4.757 2.80949 3.21424 4.35225 3.21424 6.2486C3.21424 8.14495 4.757 9.68772 6.65336 9.68772C8.54971 9.68772 10.0925 8.14495 10.0925 6.2486C10.0925 4.35225 8.54971 2.80949 6.65336 2.80949Z" fill="#F98680"/>
<path d="M7.22669 8.40576H6.08032V11.8213H7.22669V8.40576Z" fill="#26A3BF"/>
<path d="M7.22669 0.675964H6.08032V4.09151H7.22669V0.675964Z" fill="#26A3BF"/>
<path d="M4.49636 5.67542H1.08081V6.82179H4.49636V5.67542Z" fill="#26A3BF"/>
<path d="M12.2261 5.67542H8.81055V6.82179H12.2261V5.67542Z" fill="#26A3BF"/>
</g>
<defs>
<clipPath id="clip0_62_812">
<rect width="25" height="25" fill="white"/>
</clipPath>
</defs>
</svg>
